<svg width="41" height="40" viewBox="0 0 41 40" fill="none" xmlns="http://www.w3.org/2000/svg">
<g clip-path="url(#clip0_2020_58)">
<path d="M20.5 0C12.0233 0 5.125 6.77667 5.125 15.1083C5.125 26.9467 19.0548 39.17 19.6475 39.6833C19.8819 39.888 20.1852 40.0012 20.4997 40.0016C20.8141 40.0019 21.1177 39.8892 21.3525 39.685C21.9452 39.17 35.875 26.9467 35.875 15.1083C35.875 6.77667 28.9767 0 20.5 0ZM20.5 23.3333C15.7901 23.3333 11.9583 19.595 11.9583 15C11.9583 10.405 15.7901 6.66667 20.5 6.66667C25.2099 6.66667 29.0417 10.405 29.0417 15C29.0417 19.595 25.2099 23.3333 20.5 23.3333Z" fill="#DD0000"/>
</g>
<defs>
<clipPath id="clip0_2020_58">
<rect width="41" height="40" fill="white"/>
</clipPath>
</defs>
</svg>
