<svg width="59" height="54" viewBox="0 0 59 54" fill="none" xmlns="http://www.w3.org/2000/svg">
<g clip-path="url(#clip0_2020_51)">
<path d="M53.6894 4.32H47.1994V2.7C47.1994 1.98392 46.8886 1.29716 46.3353 0.790812C45.7821 0.284463 45.0318 0 44.2494 0L40.7094 0C39.927 0 39.1766 0.284463 38.6234 0.790812C38.0702 1.29716 37.7594 1.98392 37.7594 2.7V4.32H21.2394V2.7C21.2394 1.98392 20.9286 1.29716 20.3753 0.790812C19.8221 0.284463 19.0718 0 18.2894 0L14.7494 0C13.967 0 13.2166 0.284463 12.6634 0.790812C12.1102 1.29716 11.7994 1.98392 11.7994 2.7V4.32H5.30937C4.52699 4.32 3.77664 4.60446 3.22341 5.11081C2.67018 5.61716 2.35938 6.30392 2.35938 7.02V15.12H56.6394V7.02C56.6394 6.66543 56.5631 6.31433 56.4148 5.98675C56.2666 5.65918 56.0493 5.36153 55.7753 5.11081C55.5014 4.86009 55.1762 4.66121 54.8183 4.52553C54.4604 4.38984 54.0768 4.32 53.6894 4.32ZM14.1594 2.7C14.1594 2.55678 14.2215 2.41943 14.3322 2.31816C14.4428 2.21689 14.5929 2.16 14.7494 2.16H18.2894C18.4459 2.16 18.5959 2.21689 18.7066 2.31816C18.8172 2.41943 18.8794 2.55678 18.8794 2.7V8.1C18.8794 8.24322 18.8172 8.38057 18.7066 8.48184C18.5959 8.58311 18.4459 8.64 18.2894 8.64H14.7494C14.5929 8.64 14.4428 8.58311 14.3322 8.48184C14.2215 8.38057 14.1594 8.24322 14.1594 8.1V2.7ZM40.1194 2.7C40.1194 2.55678 40.1815 2.41943 40.2922 2.31816C40.4028 2.21689 40.5529 2.16 40.7094 2.16H44.2494C44.4058 2.16 44.5559 2.21689 44.6666 2.31816C44.7772 2.41943 44.8394 2.55678 44.8394 2.7V8.1C44.8394 8.24322 44.7772 8.38057 44.6666 8.48184C44.5559 8.58311 44.4058 8.64 44.2494 8.64H40.7094C40.5529 8.64 40.4028 8.58311 40.2922 8.48184C40.1815 8.38057 40.1194 8.24322 40.1194 8.1V2.7ZM2.35938 18.36V51.3C2.35938 52.0161 2.67018 52.7028 3.22341 53.2092C3.77664 53.7155 4.52699 54 5.30937 54H53.6894C54.0768 54 54.4604 53.9302 54.8183 53.7945C55.1762 53.6588 55.5014 53.4599 55.7753 53.2092C56.0493 52.9585 56.2666 52.6608 56.4148 52.3332C56.5631 52.0057 56.6394 51.6546 56.6394 51.3V17.28H2.35938V18.36Z" fill="#DD0000"/>
<path d="M28.46 45V28.522L24.68 30.832V27.108L28.46 24.84H31.904V45H28.46Z" fill="white"/>
</g>
<defs>
<clipPath id="clip0_2020_51">
<rect width="59" height="54" fill="white"/>
</clipPath>
</defs>
</svg>
