<svg width="76" height="76" viewBox="0 0 76 76" fill="none" xmlns="http://www.w3.org/2000/svg">
<path fill-rule="evenodd" clip-rule="evenodd" d="M36.5189 44.8318C27.3036 44.8318 19.7676 37.5418 19.7676 28.5787C19.7676 19.5758 27.3036 12.2858 36.5189 12.2858C45.7341 12.2858 53.2292 19.5758 53.2292 28.5787C53.2292 37.5418 45.7341 44.8318 36.5189 44.8318ZM36.5189 14.1581C28.3275 14.1581 21.6925 20.6115 21.6925 28.5787C21.6925 36.5061 28.3275 42.9595 36.5189 42.9595C44.6692 42.9595 51.3042 36.5061 51.3042 28.5787C51.3042 20.6115 44.6692 14.1581 36.5189 14.1581Z" fill="#DD0000"/>
<path fill-rule="evenodd" clip-rule="evenodd" d="M51.8787 72C51.551 72 51.2234 71.8008 51.0595 71.522L39.6326 52.2812C39.3869 51.843 39.5098 51.2455 40.0012 51.0064C40.4518 50.7276 41.0252 50.8869 41.2709 51.3251L51.4282 68.4148L53.6808 56.2648C53.7217 55.9859 53.9265 55.7469 54.1723 55.6274C54.418 55.5079 54.7047 55.4681 54.9914 55.5876L66.4593 59.85L55.7696 41.884C55.5238 41.406 55.6877 40.8483 56.1382 40.6092C56.5887 40.3304 57.1621 40.4897 57.4488 40.9279L69.4491 61.2044C69.6539 61.5231 69.6129 61.9613 69.3672 62.2402C69.0805 62.5589 68.6709 62.6784 68.3023 62.519L55.36 57.6989L52.8207 71.2431C52.7388 71.6016 52.4521 71.9203 52.0425 71.9602C52.0016 72 51.9196 72 51.8787 72Z" fill="#DD0000"/>
<path fill-rule="evenodd" clip-rule="evenodd" d="M23.7394 72C23.6574 72 23.6165 72 23.5755 71.9601C23.166 71.9203 22.8383 71.6016 22.7974 71.2431L20.258 57.6989L7.31573 62.519C6.94712 62.6784 6.4966 62.5588 6.25086 62.2402C5.96416 61.9613 5.92321 61.5231 6.12799 61.2044L17.5139 42.0035C17.8006 41.5653 18.374 41.4059 18.8246 41.645C19.2751 41.9238 19.4389 42.4815 19.1932 42.9197L9.15878 59.85L20.6267 55.5875C20.9134 55.468 21.2 55.5079 21.4458 55.6274C21.6915 55.7469 21.8554 55.9859 21.8963 56.2648L24.1899 68.4147L34.9615 50.2894C35.2072 49.8113 35.7806 49.6918 36.2721 49.9308C36.7226 50.2097 36.8865 50.7674 36.5998 51.2056L24.5585 71.5219C24.3537 71.8008 24.067 72 23.7394 72Z" fill="#DD0000"/>
<path fill-rule="evenodd" clip-rule="evenodd" d="M30.1291 39.0556C29.9243 39.0556 29.7195 39.0158 29.5557 38.8963C29.269 38.6573 29.1052 38.2987 29.1871 37.9402L30.4567 31.4868L25.501 26.9853C25.2552 26.7463 25.1324 26.348 25.2552 26.0293C25.3781 25.6707 25.6648 25.4317 26.0334 25.3919L32.7503 24.5553L35.6582 18.5799C35.7811 18.2613 36.1497 18.0621 36.5183 18.0621C36.8869 18.0621 37.2146 18.2613 37.3784 18.5799L40.2454 24.5553L46.9623 25.3919C47.3309 25.4317 47.6585 25.6707 47.7404 26.0293C47.8633 26.348 47.7814 26.7463 47.4947 26.9853L42.5799 31.4868L43.8496 37.9402C43.8905 38.2987 43.7677 38.6573 43.44 38.8963C43.1533 39.0955 42.7437 39.1353 42.457 38.9361L36.5183 35.7492L30.5796 38.9361C30.4158 39.0158 30.2519 39.0556 30.1291 39.0556ZM36.5183 33.7574C36.6821 33.7574 36.805 33.7973 36.9688 33.877L41.5969 36.3468L40.573 31.3275C40.5321 31.0088 40.614 30.6901 40.8597 30.4909L44.7097 26.9853L39.5082 26.348C39.1805 26.3081 38.8938 26.1089 38.73 25.8301L36.5183 21.1693L34.2657 25.8301C34.1428 26.1089 33.8561 26.3081 33.5285 26.348L28.286 26.9853L32.136 30.4909C32.3817 30.6901 32.5046 31.0088 32.4227 31.3275L31.4397 36.3468L36.0268 33.877C36.1907 33.7973 36.3545 33.7574 36.5183 33.7574Z" fill="#DD0000"/>
<path fill-rule="evenodd" clip-rule="evenodd" d="M41.5975 53.1178C41.5156 53.1178 41.3927 53.1178 41.3108 53.0779L36.5189 51.4845L31.727 53.0779C31.3584 53.1974 30.9897 53.1178 30.744 52.8787L27.0169 49.5325L21.9793 49.0943C21.6516 49.0545 21.324 48.8155 21.2011 48.5366L19.1942 43.9953L14.7709 41.5653C14.4432 41.406 14.2794 41.0873 14.2794 40.7686L14.3613 35.8289L11.3305 31.8852C11.0848 31.6063 11.0438 31.2478 11.2077 30.9291L13.3374 26.4675L12.2316 21.6473C12.1497 21.3286 12.2316 20.9701 12.5183 20.7311L16.3273 17.5044L17.3102 12.6444C17.3921 12.3257 17.6379 12.0469 17.9655 11.9274L22.7984 10.4933L25.7473 6.46983C25.9521 6.19098 26.2797 6.03163 26.6483 6.07147L31.6451 6.66901L36.0274 4.11951C36.3141 3.96016 36.6827 3.96016 37.0104 4.11951L41.3518 6.66901L46.3895 6.07147C46.7171 6.03163 47.0857 6.19098 47.2905 6.46983L50.1984 10.4933L55.0313 11.9274C55.359 12.0469 55.6457 12.3257 55.6866 12.6444L56.6696 17.5044L60.4785 20.7311C60.7652 20.9701 60.8881 21.3286 60.8062 21.6473L59.6594 26.4675L61.7892 30.9291C61.953 31.2478 61.912 31.6063 61.7072 31.8852L58.6765 35.8289L58.7174 40.7686C58.7584 41.0873 58.5536 41.406 58.2259 41.5653L53.8026 43.9953L51.8367 48.4968C51.6729 48.8155 51.3862 49.0545 51.0176 49.0943L45.9799 49.5325L42.2528 52.8787C42.089 53.0381 41.8433 53.1178 41.5975 53.1178ZM36.5189 49.5723C36.6008 49.5723 36.7237 49.5723 36.8056 49.6122L41.3927 51.126L44.915 47.9391C45.0788 47.8196 45.2836 47.7001 45.4884 47.7001L50.2803 47.2619L52.2053 42.9596C52.2872 42.7604 52.4101 42.6011 52.6149 42.5214L56.8334 40.2109L56.7515 35.5501C56.7515 35.3111 56.7924 35.1119 56.9563 34.9525L59.8232 31.208L57.8164 26.9455C57.6935 26.7463 57.6935 26.5472 57.7345 26.348L58.7993 21.7668L55.1951 18.6995C55.0313 18.5401 54.9084 18.3808 54.8675 18.1816L53.9255 13.5606L49.3383 12.1664C49.1335 12.1265 48.9288 12.007 48.8059 11.8079L46.0618 7.9836L41.2699 8.5413C41.0241 8.58114 40.8193 8.5413 40.6555 8.42179L36.5189 6.03163L32.3823 8.42179C32.1775 8.5413 31.9727 8.58114 31.7679 8.5413L26.976 7.9836L24.1909 11.8079C24.0681 12.007 23.9042 12.1265 23.6995 12.1664L19.0714 13.5606L18.1293 18.1816C18.0884 18.3808 18.0065 18.5401 17.8427 18.6995L14.1975 21.7668L15.2624 26.348C15.3033 26.5472 15.3033 26.7463 15.2214 26.9455L13.1736 31.208L16.0815 34.9525C16.2044 35.1119 16.2863 35.3111 16.2863 35.5501L16.2044 40.2109L20.4229 42.5214C20.5867 42.6011 20.7506 42.7604 20.8325 42.9596L22.7165 47.2619L27.5084 47.7001C27.7542 47.7001 27.918 47.8196 28.0818 47.9391L31.6451 51.126L36.1912 49.6122C36.3141 49.5723 36.396 49.5723 36.5189 49.5723Z" fill="#DD0000"/>
</svg>
