<svg width="29" height="29" viewBox="0 0 29 29" fill="none" xmlns="http://www.w3.org/2000/svg">
<path d="M27.3672 24.7891C28.1582 25.6328 28.1582 26.9512 27.3672 27.7949C26.5234 28.5859 25.2051 28.5859 24.3613 27.7949L18.0859 21.4668C15.9238 22.8906 13.2871 23.6289 10.4395 23.2598C5.58789 22.5742 1.68555 18.6191 1.05273 13.8203C0.15625 6.64844 6.2207 0.583984 13.3926 1.48047C18.1914 2.11328 22.1465 6.01562 22.832 10.8672C23.2012 13.7148 22.4629 16.3516 21.0391 18.4609L27.3672 24.7891ZM5.16602 12.3438C5.16602 16.0879 8.17188 19.0938 11.916 19.0938C15.6074 19.0938 18.666 16.0879 18.666 12.3438C18.666 8.65234 15.6074 5.59375 11.916 5.59375C8.17188 5.59375 5.16602 8.65234 5.16602 12.3438Z" fill="url(#paint0_linear_95_911)"/>
<defs>
<linearGradient id="paint0_linear_95_911" x1="1" y1="-3.29545" x2="21.499" y2="37.1949" gradientUnits="userSpaceOnUse">
<stop stop-color="#DD0000"/>
<stop offset="1" stop-color="#DD0000" stop-opacity="0.65"/>
</linearGradient>
</defs>
</svg>
