<svg width="21" height="28" viewBox="0 0 21 28" fill="none" xmlns="http://www.w3.org/2000/svg">
<path d="M13.5 0.375L20.25 7.125H13.5V0.375ZM11.8125 7.125C11.8125 8.07422 12.5508 8.8125 13.5 8.8125H20.25V24.8438C20.25 26.2676 19.0898 27.375 17.7188 27.375H2.53125C1.10742 27.375 0 26.2676 0 24.8438V2.90625C0 1.53516 1.10742 0.375 2.53125 0.375H11.8125V7.125ZM3.375 4.17188V5.01562C3.375 5.2793 3.5332 5.4375 3.79688 5.4375H8.01562C8.22656 5.4375 8.4375 5.2793 8.4375 5.01562V4.17188C8.4375 3.96094 8.22656 3.75 8.01562 3.75H3.79688C3.5332 3.75 3.375 3.96094 3.375 4.17188ZM3.375 7.54688V8.39062C3.375 8.6543 3.5332 8.8125 3.79688 8.8125H8.01562C8.22656 8.8125 8.4375 8.6543 8.4375 8.39062V7.54688C8.4375 7.33594 8.22656 7.125 8.01562 7.125H3.79688C3.5332 7.125 3.375 7.33594 3.375 7.54688ZM16.0312 20.625V20.6777H13.5C13.2891 20.6777 13.0781 20.5195 12.9727 20.3086C12.3398 19.043 10.5469 18.7266 9.49219 19.5703L8.75391 17.3555C8.5957 16.8281 8.12109 16.5117 7.59375 16.5117C7.01367 16.5117 6.53906 16.8281 6.38086 17.3555L5.43164 20.2559C5.32617 20.4668 5.11523 20.625 4.85156 20.625H4.21875C3.74414 20.625 3.375 21.0469 3.375 21.4688C3.375 21.9434 3.74414 22.3125 4.21875 22.3125H4.85156C5.85352 22.3125 6.69727 21.7324 7.01367 20.7832L7.59375 19.0957L8.4375 21.7324C8.54297 22.1016 8.85938 22.3125 9.17578 22.3125H9.28125C9.54492 22.3125 9.86133 22.1543 10.0195 21.8906L10.4414 21.0469C10.5469 20.7832 10.8105 20.7305 10.9688 20.7305C11.0742 20.7305 11.3379 20.7832 11.4961 21.0996C11.8652 21.8379 12.6562 22.3125 13.5 22.3125H16.0312C16.4531 22.3125 16.875 21.9434 16.875 21.4688C16.875 21.0469 16.4531 20.625 16.0312 20.625Z" fill="url(#paint0_linear_95_907)"/>
<defs>
<linearGradient id="paint0_linear_95_907" x1="-1.51169e-07" y1="-4.29545" x2="23.2572" y2="31.4344" gradientUnits="userSpaceOnUse">
<stop stop-color="#DD0000"/>
<stop offset="1" stop-color="#DD0000" stop-opacity="0.65"/>
</linearGradient>
</defs>
</svg>
