<svg width="21" height="28" viewBox="0 0 21 28" fill="none" xmlns="http://www.w3.org/2000/svg">
<path d="M13.5 0.375L20.25 7.125H13.5V0.375ZM11.8125 7.125C11.8125 8.07422 12.5508 8.8125 13.5 8.8125H20.25V24.8438C20.25 26.2676 19.0898 27.375 17.7188 27.375H2.53125C1.10742 27.375 0 26.2676 0 24.8438V2.90625C0 1.53516 1.10742 0.375 2.53125 0.375H11.8125V7.125ZM6.75 23.3672V19.623C6.75 19.3066 6.38086 18.9375 6.06445 18.9375H4.00781C3.69141 18.9375 3.375 19.3066 3.375 19.623V23.3672C3.375 23.6836 3.69141 24 4.00781 24H6.06445C6.38086 24 6.75 23.6836 6.75 23.3672ZM11.8125 23.3672V12.873C11.8125 12.5566 11.4434 12.1875 11.127 12.1875H9.07031C8.75391 12.1875 8.4375 12.5566 8.4375 12.873V23.3672C8.4375 23.6836 8.75391 24 9.07031 24H11.127C11.4434 24 11.8125 23.6836 11.8125 23.3672ZM14.1328 15.5625C13.8164 15.5625 13.5 15.9316 13.5 16.248V23.3672C13.5 23.6836 13.8164 24 14.1328 24H16.1895C16.5059 24 16.875 23.6836 16.875 23.3672V16.248C16.875 15.9316 16.5059 15.5625 16.1895 15.5625H14.1328Z" fill="url(#paint0_linear_95_916)"/>
<defs>
<linearGradient id="paint0_linear_95_916" x1="-1.51169e-07" y1="-4.29545" x2="23.2572" y2="31.4344" gradientUnits="userSpaceOnUse">
<stop stop-color="#DD0000"/>
<stop offset="1" stop-color="#DD0000" stop-opacity="0.65"/>
</linearGradient>
</defs>
</svg>
